<svg xmlns="http://www.w3.org/2000/svg" width="10" height="13" viewBox="0 0 10 13">
  <metadata><?xpacket begin="﻿" id="W5M0MpCehiHzreSzNTczkc9d"?>
<x:xmpmeta xmlns:x="adobe:ns:meta/" x:xmptk="Adobe XMP Core 5.6-c138 79.159824, 2016/09/14-01:09:01        ">
   <rdf:RDF xmlns:rdf="http://www.w3.org/1999/02/22-rdf-syntax-ns#">
      <rdf:Description rdf:about=""/>
   </rdf:RDF>
</x:xmpmeta>
                                                                                                    
                                                                                                    
                                                                                                    
                                                                                                    
                                                                                                    
                                                                                                    
                                                                                                    
                                                                                                    
                                                                                                    
                                                                                                    
                                                                                                    
                                                                                                    
                                                                                                    
                                                                                                    
                                                                                                    
                                                                                                    
                                                                                                    
                                                                                                    
                                                                                                    
                                                                                                    
                           
<?xpacket end="w"?></metadata>
<defs>
    <style>
      .cls-1 {
        fill: #0842b7;
        fill-rule: evenodd;
      }
    </style>
  </defs>
  <path id="shape" class="cls-1" d="M1358,13647.4a0.943,0.943,0,0,1-.3.7,1.5,1.5,0,0,1-.67.2,0.8,0.8,0,0,1-.63-0.3l-2.49-2.7v8.8a0.91,0.91,0,0,1-1.82,0v-8.8l-2.49,2.7a0.781,0.781,0,0,1-.63.3,1.422,1.422,0,0,1-.66-0.2,0.916,0.916,0,0,1-.31-0.7,1,1,0,0,1,.23-0.6l4.09-4.5a0.9,0.9,0,0,1,.68-0.3,0.873,0.873,0,0,1,.69.3l4.08,4.5A1,1,0,0,1,1358,13647.4Z" transform="translate(-1348 -13642)"/>
</svg>
