<svg xmlns="http://www.w3.org/2000/svg" width="15" height="15"><path d="M12.09 0h-9.2a2.9 2.9 0 00-2.9 2.9v9.2a2.9 2.9 0 002.9 2.9h9.2a2.9 2.9 0 002.9-2.9V2.9a2.9 2.9 0 00-2.9-2.9zm.83 1.7h.33v2.6h-2.53l-.01-2.6h2.21zM5.35 6a2.632 2.632 0 014.28 0 2.4 2.4 0 01.5 1.5 2.64 2.64 0 01-5.28 0 2.4 2.4 0 01.5-1.5zm8.18 6.1a1.407 1.407 0 01-1.44 1.4h-9.2a1.407 1.407 0 01-1.44-1.4V6h2.24a3.823 3.823 0 00-.3 1.5 4.1 4.1 0 008.2 0 3.823 3.823 0 00-.3-1.5h2.24v6.1z" fill="#0842b7" fill-rule="evenodd"/></svg>