<svg xmlns="http://www.w3.org/2000/svg" width="11" height="14"><path d="M10.22 7.4a4.278 4.278 0 00-2.04-1.1v-.1a2.715 2.715 0 001.39-1.1 3.707 3.707 0 00.51-1.9 3.033 3.033 0 00-.37-1.5A2.594 2.594 0 008.61.6 3.89 3.89 0 007.14.1 14.1 14.1 0 004.85 0H-.01v14h5.5a7.86 7.86 0 002.37-.3 3.186 3.186 0 001.7-.9 2.807 2.807 0 001.04-1.3 3.858 3.858 0 00.39-1.8 3.439 3.439 0 00-.77-2.3zM6.41 4.8a1.092 1.092 0 01-.57.5 2.158 2.158 0 01-.74.2H3.43V2.6h1.63a1.974 1.974 0 01.8.1 1.012 1.012 0 01.54.6 1.243 1.243 0 01.17.6 2.413 2.413 0 01-.16.9zm.81 5.7a1.782 1.782 0 01-.69.7 4.045 4.045 0 01-1.05.2H3.43V7.9h2.11a1.981 1.981 0 01.86.2 1.651 1.651 0 01.78.5 1.909 1.909 0 01.26 1 1.568 1.568 0 01-.22.9z" fill="#0842b7" fill-rule="evenodd"/></svg>