<svg height="512pt" viewBox="0 0 512 512" width="512pt" xmlns="http://www.w3.org/2000/svg"><linearGradient id="a" gradientUnits="userSpaceOnUse" x1="256" x2="256" y1="0" y2="512"><stop offset="0" stop-color="#2af598"/><stop offset="1" stop-color="#009efd"/></linearGradient><path d="M258.258 310.348l223.957-245.82 29.566 26.937-251.472 276.02-137.09-130.32 27.562-28.993zM496.25 167.254l-31.191 34.344C469.586 218.984 472 237.215 472 256c0 119.102-96.898 216-216 216S40 375.102 40 256 136.898 40 256 40c55.176 0 105.574 20.805 143.797 54.969l26.965-29.692C379.754 23.086 319.652 0 256 0 187.621 0 123.332 26.629 74.98 74.98 26.63 123.332 0 187.621 0 256s26.629 132.668 74.98 181.02C123.332 485.37 187.621 512 256 512s132.668-26.629 181.02-74.98C485.37 388.668 512 324.379 512 256c0-30.773-5.41-60.71-15.75-88.746zm0 0" fill="url(#a)"/></svg>