<svg xmlns="http://www.w3.org/2000/svg" width="20" height="16" viewBox="0 0 20 16">
  <metadata><?xpacket begin="﻿" id="W5M0MpCehiHzreSzNTczkc9d"?>
<x:xmpmeta xmlns:x="adobe:ns:meta/" x:xmptk="Adobe XMP Core 5.6-c138 79.159824, 2016/09/14-01:09:01        ">
   <rdf:RDF xmlns:rdf="http://www.w3.org/1999/02/22-rdf-syntax-ns#">
      <rdf:Description rdf:about=""/>
   </rdf:RDF>
</x:xmpmeta>
                           
<?xpacket end="w"?></metadata>
<defs>
    <style>
      .cls-1 {
        fill: #0842b7;
        fill-rule: evenodd;
      }
    </style>
  </defs>
  <path id="shape" class="cls-1" d="M1337.03,13591a0.985,0.985,0,0,1-1.03-1v-14a1.05,1.05,0,0,1,1.03-1h17.95a0.982,0.982,0,0,1,.72.3,1.08,1.08,0,0,1,.3.7v14a1.056,1.056,0,0,1-1.07,1h-17.9Zm15.7-2-4.45-5.5-1.63,1.5a0.851,0.851,0,0,1-.67.2,1.143,1.143,0,0,1-.68-0.2l-1.59-1.4-4.43,5.4h13.45Zm-14.71-1.7,4.18-5.1-4.18-3.8v8.9Zm15.93,0v-8.9l-4.16,3.8Zm-7.97-4.4,6.42-5.9h-12.83Z" transform="translate(-1336 -13575)"/>
</svg>
