<svg xmlns="http://www.w3.org/2000/svg" width="15" height="15" viewBox="0 0 15 15">
  <metadata><?xpacket begin="﻿" id="W5M0MpCehiHzreSzNTczkc9d"?>
<x:xmpmeta xmlns:x="adobe:ns:meta/" x:xmptk="Adobe XMP Core 5.6-c138 79.159824, 2016/09/14-01:09:01        ">
   <rdf:RDF xmlns:rdf="http://www.w3.org/1999/02/22-rdf-syntax-ns#">
      <rdf:Description rdf:about=""/>
   </rdf:RDF>
</x:xmpmeta>
                                                                                                    
                                                                                                    
                                                                                                    
                                                                                                    
                                                                                                    
                                                                                                    
                                                                                                    
                                                                                                    
                                                                                                    
                                                                                                    
                                                                                                    
                                                                                                    
                                                                                                    
                                                                                                    
                                                                                                    
                                                                                                    
                                                                                                    
                                                                                                    
                                                                                                    
                                                                                                    
                           
<?xpacket end="w"?></metadata>
<defs>
    <style>
      .cls-1 {
        fill: #0842b7;
        fill-rule: evenodd;
      }
    </style>
  </defs>
  <path id="shape" class="cls-1" d="M1301.09,13641h-9.2a2.9,2.9,0,0,0-2.9,2.9v9.2a2.9,2.9,0,0,0,2.9,2.9h9.2a2.9,2.9,0,0,0,2.9-2.9v-9.2A2.9,2.9,0,0,0,1301.09,13641Zm0.83,1.7h0.33v2.6h-2.53l-0.01-2.6h2.21Zm-7.57,4.3a2.632,2.632,0,0,1,4.28,0,2.4,2.4,0,0,1,.5,1.5,2.64,2.64,0,0,1-5.28,0A2.4,2.4,0,0,1,1294.35,13647Zm8.18,6.1a1.407,1.407,0,0,1-1.44,1.4h-9.2a1.407,1.407,0,0,1-1.44-1.4v-6.1h2.24a3.823,3.823,0,0,0-.3,1.5,4.1,4.1,0,0,0,8.2,0,3.823,3.823,0,0,0-.3-1.5h2.24v6.1Z" transform="translate(-1289 -13641)"/>
</svg>
