<svg xmlns="http://www.w3.org/2000/svg" width="11" height="14" viewBox="0 0 11 14">
  <metadata><?xpacket begin="﻿" id="W5M0MpCehiHzreSzNTczkc9d"?>
<x:xmpmeta xmlns:x="adobe:ns:meta/" x:xmptk="Adobe XMP Core 5.6-c138 79.159824, 2016/09/14-01:09:01        ">
   <rdf:RDF xmlns:rdf="http://www.w3.org/1999/02/22-rdf-syntax-ns#">
      <rdf:Description rdf:about=""/>
   </rdf:RDF>
</x:xmpmeta>
                                                                                                    
                                                                                                    
                                                                                                    
                                                                                                    
                                                                                                    
                                                                                                    
                                                                                                    
                                                                                                    
                                                                                                    
                                                                                                    
                                                                                                    
                                                                                                    
                                                                                                    
                                                                                                    
                                                                                                    
                                                                                                    
                                                                                                    
                                                                                                    
                                                                                                    
                                                                                                    
                           
<?xpacket end="w"?></metadata>
<defs>
    <style>
      .cls-1 {
        fill: #0842b7;
        fill-rule: evenodd;
      }
    </style>
  </defs>
  <path id="shape" class="cls-1" d="M1188.22,13648.4a4.278,4.278,0,0,0-2.04-1.1v-0.1a2.715,2.715,0,0,0,1.39-1.1,3.707,3.707,0,0,0,.51-1.9,3.033,3.033,0,0,0-.37-1.5,2.594,2.594,0,0,0-1.1-1.1,3.89,3.89,0,0,0-1.47-.5,14.1,14.1,0,0,0-2.29-.1h-4.86v14h5.5a7.86,7.86,0,0,0,2.37-.3,3.186,3.186,0,0,0,1.7-.9,2.807,2.807,0,0,0,1.04-1.3,3.858,3.858,0,0,0,.39-1.8A3.439,3.439,0,0,0,1188.22,13648.4Zm-3.81-2.6a1.092,1.092,0,0,1-.57.5,2.158,2.158,0,0,1-.74.2h-1.67v-2.9h1.63a1.974,1.974,0,0,1,.8.1,1.012,1.012,0,0,1,.54.6,1.243,1.243,0,0,1,.17.6A2.413,2.413,0,0,1,1184.41,13645.8Zm0.81,5.7a1.782,1.782,0,0,1-.69.7,4.045,4.045,0,0,1-1.05.2h-2.05v-3.5h2.11a1.981,1.981,0,0,1,.86.2,1.651,1.651,0,0,1,.78.5,1.909,1.909,0,0,1,.26,1A1.568,1.568,0,0,1,1185.22,13651.5Z" transform="translate(-1178 -13641)"/>
</svg>
