<svg xmlns="http://www.w3.org/2000/svg" width="19" height="13" viewBox="0 0 19 13">
  <metadata><?xpacket begin="﻿" id="W5M0MpCehiHzreSzNTczkc9d"?>
<x:xmpmeta xmlns:x="adobe:ns:meta/" x:xmptk="Adobe XMP Core 5.6-c138 79.159824, 2016/09/14-01:09:01        ">
   <rdf:RDF xmlns:rdf="http://www.w3.org/1999/02/22-rdf-syntax-ns#">
      <rdf:Description rdf:about=""/>
   </rdf:RDF>
</x:xmpmeta>
                                                                                                    
                                                                                                    
                                                                                                    
                                                                                                    
                                                                                                    
                                                                                                    
                                                                                                    
                                                                                                    
                                                                                                    
                                                                                                    
                                                                                                    
                                                                                                    
                                                                                                    
                                                                                                    
                                                                                                    
                                                                                                    
                                                                                                    
                                                                                                    
                                                                                                    
                                                                                                    
                           
<?xpacket end="w"?></metadata>
<defs>
    <style>
      .cls-1 {
        fill: #0842b7;
        fill-rule: evenodd;
      }
    </style>
  </defs>
  <path id="shape" class="cls-1" d="M1249.26,13643.1c-0.69-.8-1.95-1.1-4.37-1.1h-8.78c-2.47,0-3.76.3-4.44,1.2-0.67.8-.67,2-0.67,3.7v3.2c0,3.2.79,4.9,5.11,4.9h8.78c2.1,0,3.26-.3,4.01-1,0.77-.7,1.1-1.9,1.1-3.9v-3.2C1250,13645.1,1249.95,13643.9,1249.26,13643.1Zm-6.06,5.8-3.99,2.1h-0.28a0.4,0.4,0,0,1-.32-0.1,0.589,0.589,0,0,1-.3-0.5v-4a0.589,0.589,0,0,1,.3-0.5,0.637,0.637,0,0,1,.6,0l3.99,2A0.544,0.544,0,0,1,1243.2,13648.9Z" transform="translate(-1231 -13642)"/>
</svg>
